/* XPM */
static char * swap_xpm[] = {
"32 32 17 1",
" 	c None",
".	c #004CD6",
"+	c #4A4C4A",
"@	c #124EE2",
"#	c #0057F5",
"$	c #1C6FFF",
"%	c #377DFF",
"&	c #4387FF",
"*	c #5C8AE1",
"=	c #5292FE",
"-	c #7897D3",
";	c #7E9FD9",
">	c #6FA7FF",
",	c #89B3FC",
"'	c #9CB7E5",
")	c #A5C7FE",
"!	c #CBDCFF",
"                                ",
"                                ",
"         &&                     ",
"        $;$#                    ",
"       #;!'##                   ",
"      #-!!!'##                  ",
"     #*)))));##                 ",
"    #*,,,,,,,-##                ",
"   #&>>>>>>>>>*#@               ",
"  #$===========&#@              ",
" @#&&&&&&&&&&&&&$@@    @@       ",
"@@@@@@@%&&&&#@@@@@@    @@@      ",
"      @$%%%%$@.        @$#@     ",
"      @#%%%%%#@        @&&##    ",
"       @%%%%%%@@       @&=*##   ",
"       @#%%%%%$@@.    @@&=>-##  ",
"       .@$$$$$$$#$$$$$$#&=>,;## ",
"        .@$$$$$$$$#$%%%&&=>,)'##",
"         .@$$$$$$$$$%%%&&=>,)!'$",
"          ..#$$$$$$$%%%&&=>,)!!;",
"           ...@####$%%%&&=>,)!;$",
"             ...$$$$%#$%&=>,)-# ",
"                  ++.@@@&=>,*#  ",
"                       @&=>*#   ",
"                       @&=&#    ",
"                       @&$#     ",
"                       @##      ",
"                       @@       ",
"                       @        ",
"                                ",
"                                ",
"                                "};
